<?xml version="1.0" standalone="no"?>
<!DOCTYPE svg PUBLIC "-//W3C//DTD SVG 20010904//EN"
 "http://www.w3.org/TR/2001/REC-SVG-20010904/DTD/svg10.dtd">
<svg version="1.0" xmlns="http://www.w3.org/2000/svg"
 width="1320.000000pt" height="1320.000000pt" viewBox="0 0 1320.000000 1320.000000"
 preserveAspectRatio="xMidYMid meet">
<metadata>
Created by potrace 1.11, written by Peter Selinger 2001-2013
</metadata>
<g transform="translate(0.000000,1320.000000) scale(0.100000,-0.100000)"
fill="#000000" stroke="none">
<path d="M20 10068 c-19 -21 -20 -33 -20 -355 0 -320 1 -334 20 -353 11 -11
28 -21 38 -21 84 -6 783 -3 804 4 14 5 31 20 36 35 7 17 10 151 9 350 l-2 324
-24 19 c-22 18 -44 19 -432 19 -407 0 -408 0 -429 -22z"/>
<path d="M5897 9234 c-1 -1 -49 -4 -107 -7 -58 -4 -114 -8 -125 -10 -11 -3
-40 -8 -65 -12 -231 -36 -486 -164 -651 -327 -71 -71 -187 -218 -172 -218 5 0
3 -4 -3 -8 -13 -8 -91 -170 -99 -207 -2 -5 -10 -35 -19 -66 -9 -31 -19 -67
-21 -80 -3 -13 -7 -35 -10 -49 -18 -92 -22 -299 -6 -390 7 -36 21 -94 32 -130
22 -71 93 -219 118 -247 9 -10 29 -36 46 -58 53 -72 185 -196 285 -268 95 -67
155 -113 158 -119 2 -5 10 -8 17 -8 7 0 15 -4 17 -8 2 -5 38 -34 80 -66 79
-58 98 -80 98 -115 0 -16 -54 -91 -135 -188 -5 -7 -15 -18 -21 -25 -21 -26
-128 -153 -141 -168 -7 -8 -32 -37 -55 -65 -103 -118 -140 -151 -228 -198 -81
-43 -137 -57 -225 -58 -153 -2 -301 85 -365 214 -17 34 -32 72 -35 85 -2 13
-7 33 -11 44 -6 20 -8 30 -20 123 -4 28 -7 361 -9 740 -2 613 -7 812 -22 880
-2 11 -6 34 -8 50 -3 17 -7 42 -9 57 -6 42 -45 156 -73 218 -97 213 -306 360
-578 405 -50 9 -327 14 -339 7 -5 -3 -24 -6 -43 -8 -19 -2 -62 -10 -96 -19
-34 -9 -66 -18 -72 -19 -20 -4 -90 -29 -100 -35 -5 -3 -12 -6 -15 -6 -3 0 -38
-17 -79 -39 -85 -44 -153 -90 -231 -156 -65 -55 -89 -65 -123 -49 -32 15 -40
43 -41 151 -2 142 33 131 -442 132 l-396 0 -22 -25 -22 -25 1 -1408 0 -1408
24 -19 c22 -18 44 -19 416 -19 222 0 404 4 418 9 14 6 29 20 33 33 4 13 9 370
10 793 1 424 5 786 8 805 3 19 8 52 11 72 6 47 41 148 73 213 36 70 124 154
205 193 86 41 102 44 222 47 80 3 113 -1 163 -18 92 -30 164 -108 186 -202 4
-16 7 -30 5 -30 -1 0 2 -9 8 -20 20 -38 26 -173 28 -690 1 -286 5 -545 9 -575
3 -30 9 -80 12 -110 7 -77 16 -134 31 -205 3 -16 7 -40 9 -52 1 -11 5 -30 8
-41 4 -11 9 -29 11 -39 9 -46 58 -182 91 -251 89 -192 220 -341 403 -463 78
-53 228 -129 252 -129 8 0 19 -4 25 -9 20 -18 193 -57 304 -69 121 -12 337 -6
430 13 103 20 145 31 224 57 146 48 282 123 395 218 62 51 121 112 236 246 28
31 70 79 95 105 25 26 64 69 87 96 22 26 52 60 65 74 12 14 50 56 83 93 135
152 151 166 185 166 25 0 52 -16 119 -69 126 -101 271 -260 271 -297 0 -7 4
-14 8 -16 19 -7 72 -162 88 -258 2 -14 7 -36 11 -50 3 -14 8 -389 9 -835 2
-445 5 -832 8 -860 8 -91 18 -159 33 -225 8 -36 16 -72 18 -80 2 -8 13 -42 26
-75 56 -149 145 -267 259 -344 67 -46 113 -67 210 -100 71 -23 89 -25 344 -29
268 -3 269 -3 355 23 172 53 305 131 430 252 24 24 46 44 50 44 32 7 52 4 70
-10 20 -15 22 -28 25 -121 5 -154 -31 -143 436 -142 421 0 436 2 445 56 3 17
4 656 3 1420 l-3 1389 -26 19 c-24 18 -47 19 -422 19 -370 0 -399 -1 -420 -18
-12 -10 -23 -24 -24 -30 -1 -6 -3 -354 -4 -772 -2 -895 -5 -925 -93 -1099
-111 -218 -401 -315 -631 -212 -79 36 -149 138 -170 248 -2 9 -4 17 -5 17 -14
0 -20 225 -24 855 -2 355 -7 658 -10 675 -2 16 -8 52 -12 80 -3 27 -8 59 -11
70 -2 11 -6 31 -9 45 -3 14 -10 43 -16 65 -6 22 -11 45 -12 52 -1 7 -5 16 -9
19 -4 4 -7 18 -7 30 0 13 -4 26 -10 29 -5 3 -10 12 -10 20 0 30 -103 227 -151
290 -123 159 -301 315 -527 460 -66 43 -89 81 -69 119 5 11 46 65 91 120 45
56 92 119 106 141 13 22 27 42 30 45 10 8 94 160 120 215 26 57 59 149 66 182
2 12 9 34 14 48 5 14 7 25 5 25 -2 0 0 11 5 24 20 55 33 338 17 401 -2 11 -8
45 -13 75 -8 59 -8 58 -16 80 -3 8 -13 42 -23 75 -21 72 -68 174 -107 232 -15
23 -28 46 -28 51 0 6 -3 12 -8 14 -4 2 -23 23 -42 47 -42 54 -109 121 -164
163 -22 18 -43 35 -46 38 -27 31 -242 144 -315 166 -132 40 -179 54 -202 57
-16 3 -39 7 -53 11 -62 14 -353 38 -363 30z m144 -820 c81 -19 132 -46 185
-100 73 -75 105 -155 109 -278 2 -87 -11 -139 -58 -232 -25 -49 -120 -183
-175 -246 -15 -17 -39 -45 -53 -62 -43 -49 -77 -42 -194 38 -197 136 -267 203
-321 313 -31 60 -37 83 -40 153 -7 152 55 282 171 358 103 67 241 87 376 56z"/>
<path d="M42 8918 c-12 -6 -26 -24 -30 -40 -4 -15 -7 -655 -6 -1422 0 -1131 3
-1397 13 -1410 7 -9 27 -19 45 -24 17 -4 204 -7 415 -7 l383 1 23 26 22 25 0
1399 c0 947 -3 1405 -10 1419 -23 44 -23 44 -437 44 -264 0 -403 -4 -418 -11z"/>
<path d="M10131 7218 c-56 -15 -56 -13 -57 -372 -1 -182 3 -339 8 -348 19 -38
40 -40 448 -39 219 1 405 3 412 6 36 14 39 40 39 368 1 177 -1 329 -3 337 -1
8 -13 23 -26 34 -22 17 -46 19 -408 20 -211 0 -397 -2 -413 -6z"/>
<path d="M11773 6974 c-13 -13 -23 -31 -24 -41 0 -10 -1 -200 -1 -422 l0 -404
-24 -24 c-23 -23 -29 -24 -163 -22 -77 0 -144 -2 -150 -6 -6 -3 -15 -3 -21 0
-5 3 -21 -5 -35 -19 l-26 -26 3 -311 c3 -307 3 -311 25 -329 19 -15 43 -18
173 -18 171 1 197 -7 205 -56 3 -17 6 -373 8 -791 2 -418 7 -771 11 -785 3
-14 9 -38 11 -55 12 -77 36 -149 78 -235 35 -71 149 -194 207 -224 86 -45 114
-58 173 -78 57 -20 88 -22 383 -25 290 -4 333 -2 434 16 84 15 118 25 136 42
l24 22 0 294 c0 253 -2 297 -16 318 -9 14 -20 23 -24 20 -5 -3 -11 -1 -14 4
-4 5 -21 5 -43 0 -84 -20 -112 -23 -203 -23 -78 0 -102 4 -137 22 -79 41 -113
117 -119 267 -2 55 -4 102 -5 105 -1 3 -1 8 0 12 1 9 1 104 0 178 0 30 0 60 1
65 1 6 1 73 0 150 -1 77 -1 147 -1 155 0 8 0 47 0 85 -1 39 -1 75 -1 80 6 89
5 265 -1 265 -5 0 -5 4 -2 10 3 5 6 34 6 65 1 70 23 95 83 96 23 0 129 2 236
3 107 2 200 4 206 4 29 4 34 57 34 345 0 161 -3 302 -6 313 -9 34 -43 42 -170
44 -145 1 -121 1 -230 -1 -95 -1 -126 8 -144 40 -8 16 -13 126 -11 246 1 11 0
52 0 90 -1 39 -1 75 -1 80 6 89 5 265 -1 265 -5 0 -6 4 -2 10 3 5 5 31 5 57 0
26 0 60 0 74 0 15 -8 37 -19 50 l-19 24 -403 1 -403 1 -23 -23z"/>
<path d="M10180 6049 c-101 -10 -101 -12 -101 -219 0 -8 0 -154 0 -325 0 -170
0 -317 0 -325 0 -8 0 -152 0 -320 0 -168 0 -312 0 -320 0 -8 0 -152 0 -320 0
-168 0 -309 0 -315 0 -5 1 -171 2 -368 l1 -357 26 -20 c24 -19 41 -20 427 -20
l402 0 22 24 22 24 0 1407 0 1408 -23 24 -24 24 -350 2 c-192 1 -374 -1 -404
-4z"/>
</g>
</svg>
